<svg width="17" height="17" viewBox="0 0 17 17" fill="none" xmlns="http://www.w3.org/2000/svg">
<g id="Email">
<rect width="16" height="16" transform="translate(0.5 0.367188)" fill="none" style="mix-blend-mode:multiply"/>
<path id="Vector" d="M14.5 3.36719H2.5C2.23478 3.36719 1.98043 3.47254 1.79289 3.66008C1.60536 3.84762 1.5 4.10197 1.5 4.36719V12.3672C1.5 12.6324 1.60536 12.8868 1.79289 13.0743C1.98043 13.2618 2.23478 13.3672 2.5 13.3672H14.5C14.7652 13.3672 15.0196 13.2618 15.2071 13.0743C15.3946 12.8868 15.5 12.6324 15.5 12.3672V4.36719C15.5 4.10197 15.3946 3.84762 15.2071 3.66008C15.0196 3.47254 14.7652 3.36719 14.5 3.36719ZM13.4 4.36719L8.5 7.75719L3.6 4.36719H13.4ZM2.5 12.3672V4.82219L8.215 8.77719C8.2987 8.83525 8.39813 8.86637 8.5 8.86637C8.60187 8.86637 8.7013 8.83525 8.785 8.77719L14.5 4.82219V12.3672H2.5Z" fill="#525252"/>
</g>
</svg>
