<svg width="100" height="22" viewBox="0 0 100 22" fill="none" xmlns="http://www.w3.org/2000/svg">
<g id="Logo_Ozone_copia" clip-path="url(#clip0_802_393)">
<path id="Vector" d="M44.6557 21.361L44.2909 21.2041C44.1151 21.1285 43.9582 21.0567 43.8127 20.983C43 20.5804 42.242 20.0738 41.5654 19.4803C40.8849 18.8868 40.2744 18.2121 39.7509 17.4768C39.2235 16.7397 38.8001 15.9439 38.4902 15.1123C38.029 13.8459 37.787 12.5701 37.7757 11.3169C37.7625 10.0638 37.9458 8.86358 38.3182 7.75031C38.6905 6.63892 39.2367 5.59558 39.9436 4.65242C40.6505 3.70547 41.5049 2.89273 42.4821 2.23308C43.4536 1.57532 44.5461 1.06499 45.7236 0.717212C46.9049 0.367541 48.1826 0.229563 49.5152 0.307058C50.498 0.359981 51.445 0.571673 52.3295 0.938354C53.1933 1.29558 54.0306 1.73787 54.8188 2.2482C55.6807 2.85303 56.4178 3.55049 57.0227 4.32732C57.6237 5.09848 58.1473 5.95848 58.5801 6.88086C58.9714 7.74653 59.2152 8.65378 59.3059 9.58371C59.3929 10.4872 59.4137 11.4077 59.3626 12.3206C59.3626 12.8536 59.287 13.3734 59.1415 13.8667C59.0016 14.343 58.8391 14.8042 58.6614 15.2389C58.2021 16.4732 57.5292 17.5789 56.6654 18.5126C55.8035 19.4444 54.8075 20.2061 53.7036 20.775C53.4447 20.9092 53.165 21.0378 52.8493 21.1663L52.4883 21.3156L51.823 19.7279L52.184 19.5748C52.4978 19.4425 52.7964 19.297 53.0705 19.1439C54.1875 18.522 55.108 17.7414 55.8036 16.8247C56.5048 15.9042 57.0094 14.9044 57.3062 13.8554C57.6029 12.8026 57.7107 11.7101 57.6275 10.61C57.5443 9.50811 57.2722 8.4402 56.8204 7.43466C56.3687 6.43101 55.7298 5.50108 54.9209 4.67321C54.1138 3.84912 53.1253 3.17435 51.9836 2.67347C51.3032 2.38996 50.5396 2.1915 49.7212 2.08376C48.9084 1.97602 48.0976 1.98169 47.3132 2.10077C45.6782 2.3635 44.2418 2.99857 43.0453 3.98899C41.8413 4.98508 40.9246 6.18152 40.3179 7.54618C39.7131 8.90894 39.4541 10.3965 39.5486 11.9653C39.6431 13.5246 40.1837 15.0178 41.1571 16.4032C41.8489 17.4352 42.724 18.282 43.7654 18.9265C44.1435 19.1609 44.5555 19.3726 44.9902 19.5578L45.3494 19.7109L44.6576 21.361H44.6557Z" fill="#007E79"/>
<path id="Vector_2" d="M35.3262 21.3666H22.8004V19.8905L22.8741 19.7638L33.3019 1.99492H22.8004V0.290039H36.396L25.2991 19.5521H35.3262V21.3666Z" fill="#3F3F40"/>
<path id="Vector_3" d="M10.439 21.3497C9.75292 21.3497 9.05737 21.2816 8.35803 21.1475C7.57552 21.0095 6.80058 20.7581 6.05965 20.3952C5.32629 20.038 4.63262 19.6032 3.99565 19.1005C3.3568 18.5958 2.77275 18.0174 2.26053 17.3805C1.74264 16.7359 1.32115 16.0423 1.00928 15.3184C0.393106 13.9367 0.0566662 12.5701 0.00752339 11.2584C-0.0416194 9.95233 0.132271 8.70864 0.519743 7.56134C0.907215 6.41783 1.48181 5.36126 2.2284 4.42187C2.97121 3.48627 3.84822 2.68297 4.83486 2.03467C5.8215 1.38636 6.9102 0.90627 8.07073 0.605743C9.23315 0.307106 10.4277 0.20882 11.6204 0.314666C12.8187 0.422402 14.0189 0.770182 15.1908 1.35234C16.3626 1.93449 17.474 2.79449 18.4928 3.90965C19.1751 4.65058 19.7195 5.48411 20.1126 6.3857C20.4982 7.27027 20.7798 8.20587 20.9518 9.16416C21.1654 10.406 21.1692 11.6062 20.9651 12.7346C20.7609 13.8592 20.3867 14.9176 19.8537 15.8778C19.3207 16.838 18.6364 17.7075 17.8237 18.4616C17.0109 19.2158 16.0924 19.8338 15.0944 20.3007C14.0983 20.7638 13.0171 21.0832 11.8812 21.2457C11.4068 21.3138 10.9248 21.3478 10.4371 21.3478L10.439 21.3497ZM9.04603 19.4804C9.85688 19.6184 10.6866 19.641 11.5088 19.5446C12.3348 19.4482 13.1362 19.246 13.8904 18.9417C14.6445 18.6393 15.3495 18.231 15.9903 17.7282C16.6273 17.2293 17.1867 16.6339 17.6536 15.961C18.2981 15.0537 18.7498 14.0898 19.0012 13.088C19.2526 12.0787 19.3414 11.0694 19.264 10.0884C19.1865 9.11123 18.9407 8.16051 18.5344 7.26082C18.1261 6.35735 17.5799 5.53515 16.9127 4.81502C16.2473 4.09677 15.444 3.49194 14.5236 3.01374C13.6087 2.53932 12.5805 2.23691 11.471 2.11594C10.5676 2.01198 9.65464 2.04979 8.75495 2.23313C7.85904 2.41458 7.01227 2.74157 6.23732 3.20653C5.65895 3.53919 5.10704 3.95691 4.58537 4.45212C4.06181 4.94921 3.59306 5.50302 3.19236 6.09462C2.79354 6.68433 2.46277 7.32319 2.21139 7.99229C1.96568 8.64438 1.83337 9.31726 1.81636 9.99202C1.76343 11.0769 1.85605 12.1316 2.09231 13.1391C2.32291 14.1238 2.77275 15.0689 3.42673 15.9478C4.09205 16.8928 4.91236 17.6696 5.87064 18.265C6.83271 18.8623 7.90251 19.2725 9.04603 19.4804Z" fill="#3F3F40"/>
<path id="Vector_4" d="M76.4492 21.3666H74.7462L74.6895 11.9274L63.6645 2.96076L63.7212 21.3666H61.9067V0.290039H63.2412L74.7462 9.63096V0.290039H76.4492V21.3666Z" fill="#3F3F40"/>
<path id="Vector_5" d="M90.2281 21.367H88.6178C88.3588 21.367 88.0696 21.3405 87.7578 21.2876H87.754C86.4706 21.0608 85.2987 20.6317 84.2649 20.0156C83.2442 19.4069 82.2991 18.6433 81.4543 17.7493C80.4827 16.6247 79.7985 15.3848 79.4073 14.0466C79.0217 12.7292 78.8516 11.3418 78.9007 9.92237C78.9518 8.99811 79.1559 8.07196 79.5112 7.16092C79.859 6.26501 80.29 5.44281 80.7908 4.71512C81.8266 3.30132 83.0382 2.23152 84.399 1.52462C85.7524 0.823388 87.1699 0.417014 88.6159 0.314949C90.0599 0.214773 91.4907 0.405674 92.8705 0.881981C94.2484 1.35829 95.494 2.0822 96.5732 3.03482C97.6563 3.9931 98.5238 5.18387 99.1514 6.57688C99.7826 7.97745 100.064 9.56514 99.9887 11.2946L99.966 11.7936H89.4797V9.74092H97.9833C97.5107 6.86796 96.044 4.73402 93.5132 3.22761C92.7344 2.76075 91.8858 2.45644 90.9861 2.32413C90.0675 2.18805 89.1394 2.17671 88.2303 2.29011C87.2172 2.40352 86.2551 2.71539 85.363 3.21627C84.4595 3.72471 83.6695 4.35978 83.0155 5.10259C82.0667 6.16484 81.4278 7.34237 81.1159 8.60686C80.8003 9.88268 80.7587 11.1509 80.9969 12.3776C81.2331 13.6024 81.7472 14.7686 82.526 15.8403C83.3047 16.912 84.3197 17.8003 85.5407 18.4789C86.1096 18.7851 86.7371 19.01 87.4043 19.1423C87.9695 19.2557 88.7331 19.3578 89.3455 19.4391L90.2263 19.5581V21.3632L90.2281 21.367Z" fill="#3F3F40"/>
</g>
<defs>
<clipPath id="clip0_802_393">
<rect width="100" height="21.0936" fill="white" transform="translate(0 0.273438)"/>
</clipPath>
</defs>
</svg>
