<?xml version="1.0" encoding="UTF-8"?><svg id="Layer_1" xmlns="http://www.w3.org/2000/svg" viewBox="0 0 841.89 203.98"><defs><style>.cls-1{fill:#3cb393;}</style></defs><path class="cls-1" d="M258.12,106.38c0-45.22,25.28-73.46,66.95-73.46s66.95,28.24,66.95,73.46-25.08,73.07-66.95,73.07-66.95-27.85-66.95-73.07ZM365.35,106.38c0-31.99-15.01-51.15-40.29-51.15s-40.29,19.16-40.29,51.15,15.01,50.75,40.29,50.75,40.29-18.76,40.29-50.75Z"/><path class="cls-1" d="M406.83,155.36l60.82-64.97h-58.65v-19.55h88.47v20.93l-61.61,64.97h63.19v19.55h-92.22v-20.93Z"/><path class="cls-1" d="M510.71,123.56c0-33.37,20.54-55.1,51.94-55.1s51.74,21.72,51.74,55.1-20.54,55.1-51.74,55.1-51.94-21.72-51.94-55.1ZM588.32,123.56c0-21.72-9.48-34.56-25.67-34.56s-25.67,12.84-25.67,34.56,9.28,34.56,25.67,34.56,25.67-12.64,25.67-34.56Z"/><path class="cls-1" d="M629.8,70.84h22.91l.59,18.17c5.53-14.61,17.58-20.54,31.6-20.54,23.3,0,35.94,16.39,35.94,40.09v67.74h-25.28v-59.64c0-17.77-4.74-27.65-18.37-27.65s-22.12,9.87-22.12,27.65v59.64h-25.28v-105.46Z"/><path class="cls-1" d="M735.26,123.56c0-33.18,20.14-55.1,51.15-55.1s50.16,20.93,50.16,56.48v5.73h-75.04c.99,18.56,10.66,27.85,25.67,27.85,11.26,0,18.96-5.33,21.92-14.61l25.87,1.58c-5.73,20.54-23.7,33.18-47.99,33.18-31.6,0-51.74-21.72-51.74-55.1ZM786.41,88.41c-13.63,0-22.91,8.89-24.88,25.28h48.78c-1.19-17.18-10.47-25.28-23.9-25.28Z"/><path class="cls-1" d="M211.38,87.74c-.92-8.64-3.14-17.11-6.9-24.96-7.7-16.08-19.45-31.22-34.62-40.87-16.01-10.18-33.89-16.39-52.94-16.42-19.79-.03-39.67,4.97-57.16,14.22C27.21,36.94,5.82,69.58,5.83,106.8c0,20.98,6.88,41.84,19.79,58.41,11.22,14.4,25.41,24.7,42.2,31.64.48.39,1.36.55,2.34.58,2.17.24,4.54-.23,6.69-.89,3.05-.73-.07-6.44.9-8.88,1.93-4.84,11.12-5.31,13.05-10.14.29-.6.15-1.07-.41-1.42-10.95-4.46-20.95-10.14-29.24-18.7-9.74-10.06-17.14-23.08-20.35-36.72-6.54-27.78,3.29-57.32,24-76.61,8.59-8,19.01-13.93,30.73-15.63,14.17-2.06,29.24,1.38,41.7,8.17,25.18,13.72,41.2,40.34,42.11,68.95.53,16.81-4.38,33.21-14,47-8.03,11.51-19.23,19.23-31.9,24.84-.77.34-10.74,6.23-10.09,7.7,2.01,4.59,10.4,5.04,12.41,9.63,1.62,3.69,11.8-.56,13.98-1.5,15.12-6.55,28.93-15.36,39.79-27.92,5.6-6.48,10.31-13.68,13.86-21.48,3.63-7.97,6.92-16.76,8.18-25.46,1.44-9.97.88-20.65-.18-30.63Z"/></svg>