<svg width="74" height="75" viewBox="0 0 74 75" fill="none" xmlns="http://www.w3.org/2000/svg">
<g id="Pictogram">
<path id="tools_1_" d="M58.1084 73.0705C54.2859 73.0705 50.5119 71.5813 47.6906 68.7647C43.7663 64.838 42.395 58.9967 44.1248 53.7496L20.5211 30.1505C15.2694 31.878 9.43494 30.5044 5.51063 26.5824C1.10763 22.1817 -0.0486208 15.4523 2.63388 9.83986C2.7495 9.59704 2.97613 9.42361 3.24438 9.37736C3.51725 9.33573 3.78319 9.41898 3.97282 9.61092L13.2274 18.8655C14.7074 20.3409 17.1124 20.3432 18.5924 18.8655C20.0701 17.3855 20.0701 14.9805 18.5924 13.5005L9.33782 4.24592C9.14588 4.05398 9.06032 3.78342 9.10425 3.51748C9.1505 3.25154 9.32163 3.02492 9.56675 2.90698C15.1792 0.22217 21.9063 1.38073 26.3069 5.78142C30.2336 9.70804 31.6072 15.5494 29.8728 20.7988L53.4742 44.3979C58.7259 42.6589 64.5649 44.0371 68.4893 47.9637C72.8876 52.3644 74.0439 59.0915 71.3637 64.7062C71.2458 64.949 71.0191 65.1225 70.7509 65.1664C70.5011 65.2173 70.2167 65.1248 70.0224 64.9352L60.7678 55.6805C59.2901 54.2029 56.8828 54.2029 55.4074 55.6805C53.9274 57.1605 53.9274 59.5655 55.4074 61.0409L64.6621 70.2955C64.8517 70.4875 64.9396 70.758 64.8933 71.024C64.8471 71.2899 64.6759 71.5189 64.4331 71.6368C62.4166 72.6011 60.2568 73.0705 58.1084 73.0705ZM20.7384 28.3607C20.9558 28.3607 21.1686 28.4462 21.3258 28.6035L45.6718 52.9402C45.9031 53.1715 45.9771 53.5137 45.8638 53.819C44.0947 58.5874 45.2741 63.9917 48.87 67.5853C52.4868 71.202 57.8795 72.349 62.6109 70.6031L54.2304 62.2226C52.1052 60.0951 52.1052 56.6333 54.2304 54.5035C56.3671 52.3806 59.8266 52.3829 61.9495 54.5035L70.33 62.884C72.0759 58.1503 70.9313 52.7599 67.3122 49.1431C63.7186 45.5472 58.3189 44.3678 53.5459 46.1369C53.2406 46.2479 52.9007 46.1762 52.6671 45.9449L28.3281 21.6059C28.0968 21.3769 28.0228 21.0324 28.1361 20.7271C29.9075 15.9587 28.7258 10.5544 25.1322 6.95848C21.5154 3.34173 16.1227 2.19473 11.389 3.94298L19.7695 12.3235C20.7963 13.3502 21.3605 14.7215 21.3605 16.183C21.3605 17.6445 20.7939 19.0159 19.7672 20.0403C17.7137 22.0961 14.1016 22.0938 12.0504 20.0403L3.66988 11.6621C1.92394 16.3935 3.06863 21.7862 6.68538 25.4053C10.279 28.9989 15.6856 30.1783 20.4494 28.4115C20.5442 28.3769 20.6413 28.3607 20.7384 28.3607ZM6.60907 72.5155C6.39632 72.5155 6.18125 72.4323 6.02169 72.2727L1.991 68.2421C1.6765 67.9275 1.66494 67.4234 1.96325 67.0927L8.75275 59.6257C8.90538 59.4569 9.12044 59.3597 9.34938 59.3528C9.52744 59.3528 9.79569 59.436 9.95757 59.5956L11.7243 61.3624L29.0126 44.0718L30.1896 45.2512L12.9014 62.5417L14.6658 64.3062C14.8277 64.468 14.9156 64.6877 14.9086 64.9167C14.9017 65.1456 14.8046 65.3584 14.6358 65.5133L7.16869 72.3028C7.01144 72.4439 6.81025 72.5155 6.60907 72.5155ZM3.73 67.6246L6.63682 70.5337L12.869 64.8658L9.39563 61.3924L3.73 67.6246ZM49.3973 33.8459L48.2179 32.6689L69.7496 11.1372C70.6376 10.2515 71.1255 9.07442 71.1255 7.82336C71.1255 6.5723 70.6376 5.39523 69.7496 4.50954C67.9273 2.68729 64.9534 2.68267 63.1266 4.50954L41.5949 26.0412L40.4155 24.8642L61.9472 3.33248C64.3476 0.932107 68.5332 0.936732 70.9289 3.33248C72.1291 4.53267 72.7905 6.12598 72.7905 7.82336C72.7905 9.52073 72.1291 11.114 70.9289 12.3142L49.3973 33.8459ZM45.4961 29.9447L44.3167 28.7677L65.7813 7.30304L66.9607 8.48011L45.4961 29.9447Z" fill="#161616"/>
</g>
</svg>
